<mxfile host="app.diagrams.net" agent="Mozilla/5.0 (Windows NT 10.0; Win64; x64) AppleWebKit/537.36 (KHTML, like Gecko) Chrome/132.0.0.0 Safari/537.36" version="24.8.8">
  <diagram name="Page-1" id="71ylsv7XMmZrBS6oHPIS">
    <mxGraphModel dx="1050" dy="617" grid="1" gridSize="10" guides="1" tooltips="1" connect="1" arrows="1" fold="1" page="1" pageScale="1" pageWidth="1169" pageHeight="827" math="0" shadow="0">
      <root>
        <mxCell id="0" />
        <mxCell id="1" parent="0" />
        <mxCell id="Kt-MucmYVOVO_Ar-UiYp-5" value="" style="edgeStyle=orthogonalEdgeStyle;rounded=0;orthogonalLoop=1;jettySize=auto;html=1;strokeWidth=4;flowAnimation=1;" edge="1" parent="1">
          <mxGeometry relative="1" as="geometry">
            <mxPoint x="700" y="195" as="sourcePoint" />
            <mxPoint x="800" y="195" as="targetPoint" />
          </mxGeometry>
        </mxCell>
        <mxCell id="Kt-MucmYVOVO_Ar-UiYp-6" style="edgeStyle=orthogonalEdgeStyle;rounded=0;orthogonalLoop=1;jettySize=auto;html=1;entryX=1;entryY=0.5;entryDx=0;entryDy=0;strokeWidth=4;flowAnimation=1;" edge="1" parent="1" source="Kt-MucmYVOVO_Ar-UiYp-1" target="Kt-MucmYVOVO_Ar-UiYp-3">
          <mxGeometry relative="1" as="geometry" />
        </mxCell>
        <mxCell id="Kt-MucmYVOVO_Ar-UiYp-9" value="" style="edgeStyle=orthogonalEdgeStyle;rounded=0;orthogonalLoop=1;jettySize=auto;html=1;strokeWidth=4;flowAnimation=1;" edge="1" parent="1" source="Kt-MucmYVOVO_Ar-UiYp-1" target="Kt-MucmYVOVO_Ar-UiYp-8">
          <mxGeometry relative="1" as="geometry">
            <Array as="points">
              <mxPoint x="570" y="420" />
              <mxPoint x="570" y="420" />
            </Array>
          </mxGeometry>
        </mxCell>
        <mxCell id="Kt-MucmYVOVO_Ar-UiYp-1" value="&lt;span style=&quot;font-size: 36px;&quot;&gt;USSD System by Airtel&lt;/span&gt;" style="rounded=1;whiteSpace=wrap;html=1;fillColor=#dae8fc;strokeColor=#6c8ebf;dashed=1;" vertex="1" parent="1">
          <mxGeometry x="510" y="90" width="200" height="300" as="geometry" />
        </mxCell>
        <mxCell id="Kt-MucmYVOVO_Ar-UiYp-7" style="edgeStyle=orthogonalEdgeStyle;rounded=0;orthogonalLoop=1;jettySize=auto;html=1;entryX=1;entryY=0.5;entryDx=0;entryDy=0;strokeWidth=4;flowAnimation=1;" edge="1" parent="1">
          <mxGeometry relative="1" as="geometry">
            <mxPoint x="800" y="248" as="sourcePoint" />
            <mxPoint x="700" y="248" as="targetPoint" />
          </mxGeometry>
        </mxCell>
        <mxCell id="Kt-MucmYVOVO_Ar-UiYp-2" value="&lt;span style=&quot;font-size: 36px;&quot;&gt;Web&lt;/span&gt;&lt;div&gt;&lt;span style=&quot;font-size: 36px;&quot;&gt;Application&lt;/span&gt;&lt;/div&gt;" style="rounded=1;whiteSpace=wrap;html=1;fillColor=#ef4734;strokeColor=#D71515;dashed=1;dashPattern=8 8;fillStyle=solid;gradientColor=none;opacity=80;" vertex="1" parent="1">
          <mxGeometry x="800" y="90" width="200" height="300" as="geometry" />
        </mxCell>
        <mxCell id="Kt-MucmYVOVO_Ar-UiYp-4" value="" style="edgeStyle=orthogonalEdgeStyle;rounded=0;orthogonalLoop=1;jettySize=auto;html=1;strokeWidth=4;flowAnimation=1;" edge="1" parent="1">
          <mxGeometry relative="1" as="geometry">
            <mxPoint x="400" y="193" as="sourcePoint" />
            <mxPoint x="510" y="193" as="targetPoint" />
          </mxGeometry>
        </mxCell>
        <mxCell id="Kt-MucmYVOVO_Ar-UiYp-3" value="&lt;font style=&quot;font-size: 36px;&quot;&gt;Mobile Application&lt;/font&gt;" style="rounded=1;whiteSpace=wrap;html=1;fillColor=#d5e8d4;strokeColor=#82b366;dashed=1;" vertex="1" parent="1">
          <mxGeometry x="180" y="80" width="220" height="320" as="geometry" />
        </mxCell>
        <mxCell id="Kt-MucmYVOVO_Ar-UiYp-8" value="&lt;span style=&quot;font-size: 36px;&quot;&gt;REMITX PAS&lt;/span&gt;" style="rounded=1;whiteSpace=wrap;html=1;fillColor=#dae8fc;strokeColor=#6c8ebf;dashed=1;" vertex="1" parent="1">
          <mxGeometry x="510" y="500" width="210" height="290" as="geometry" />
        </mxCell>
        <mxCell id="Kt-MucmYVOVO_Ar-UiYp-10" style="edgeStyle=orthogonalEdgeStyle;rounded=0;orthogonalLoop=1;jettySize=auto;html=1;entryX=0.589;entryY=0.997;entryDx=0;entryDy=0;entryPerimeter=0;strokeWidth=4;flowAnimation=1;" edge="1" parent="1" source="Kt-MucmYVOVO_Ar-UiYp-8" target="Kt-MucmYVOVO_Ar-UiYp-1">
          <mxGeometry relative="1" as="geometry" />
        </mxCell>
      </root>
    </mxGraphModel>
  </diagram>
</mxfile>
